<svg width="24" height="34" viewBox="0 0 24 34" fill="none" xmlns="http://www.w3.org/2000/svg">
<path d="M23.1256 11.394C23.1256 5.10215 17.9519 0 11.5718 0C5.19173 0 0.0180508 5.10215 0.0180508 11.394C0.0180508 11.394 -0.503969 15.3522 4.06651 21.7814C6.11974 24.6756 11.5718 33.2669 11.5718 33.2669C11.5718 33.2669 17.0239 24.6756 19.0772 21.7814C23.6476 15.3522 23.1256 11.394 23.1256 11.394ZM11.5718 19.9052C6.92016 19.9052 3.15012 16.1873 3.15012 11.5999C3.15012 7.01259 6.92016 3.29466 11.5718 3.29466C16.2235 3.29466 19.9936 7.01259 19.9936 11.5999C19.9936 16.1873 16.2235 19.9052 11.5718 19.9052Z" fill="white"/>
</svg>
