<svg width="36" height="32" viewBox="0 0 36 32" fill="none" xmlns="http://www.w3.org/2000/svg">
<path d="M27.9372 8.08549C31.6547 5.15259 35.6882 0.918226 35.0377 0.13001C34.3871 -0.658206 29.3127 2.27469 25.5952 5.22592C25.2606 5.50088 24.926 5.7575 24.61 6.01413C23.9595 5.90415 22.6026 5.68418 20.8739 5.40922C20.8925 5.40922 20.9297 5.40922 20.9483 5.40922L21.952 4.62101C22.0821 4.52935 22.0821 4.32772 21.952 4.1994L21.1713 3.24621C21.0598 3.09957 20.8739 3.06291 20.7438 3.17289L19.7401 3.9611C19.7401 3.9611 19.6657 4.07109 19.6471 4.14441L18.4761 5.06094C17.0077 4.82264 15.4091 4.56601 13.8292 4.30939L14.8143 3.5395C14.9444 3.44785 14.9444 3.24621 14.8143 3.1179L14.0337 2.16471C13.9221 2.01806 13.7363 1.9814 13.6061 2.09138L12.6024 2.8796C12.6024 2.8796 12.5281 2.98958 12.5095 3.0629L11.3756 3.94278C7.3607 3.3012 3.99634 2.78795 3.88481 2.82461C3.606 2.91626 2.17475 4.12608 2.17475 4.12608C1.82158 4.40104 1.57995 4.65767 1.59854 4.69433C1.63571 4.73099 2.04464 4.45603 2.37921 4.1994L9.75851 6.85734C9.49828 7.09564 9.34957 7.31561 9.40534 7.38893C9.47969 7.48058 9.81427 7.3156 10.1488 7.04065L10.186 7.00399L11.6359 7.53557C11.3942 7.75554 11.2455 7.97551 11.3013 8.04883C11.3756 8.14048 11.7102 7.97551 12.0448 7.70055L13.3645 8.15881L14.1638 8.72706C13.8664 8.98369 13.6619 9.24032 13.7177 9.31364C13.792 9.40529 14.1266 9.24032 14.4612 8.96536H14.4798L16.0597 10.0652C15.7623 10.3218 15.5578 10.5785 15.6322 10.6518C15.7065 10.7434 16.0411 10.5785 16.3757 10.3035L17.8255 11.33C15.3534 13.328 14.3868 14.1346 12.5466 15.601C10.6879 17.0675 8.99641 18.6073 7.63952 19.9821C5.44618 19.6521 1.11525 18.9372 1.11525 18.9372L0 19.6704L4.70267 23.2632C4.44244 23.6115 4.23797 23.8865 4.12645 24.1064C3.40153 24.7663 2.97402 25.2063 3.02978 25.2796C3.08554 25.3529 3.606 25.0596 4.38668 24.5097C4.62832 24.4364 4.96289 24.2714 5.39041 24.0698L7.93692 29.4406L8.92206 28.5424C8.92206 28.5424 9.18229 23.9231 9.33099 21.8151C10.9295 20.8253 12.7511 19.6521 14.647 18.3506C16.9519 16.5359 17.9928 15.766 20.1304 14.1163L20.8181 15.7294C20.465 16.0226 20.2419 16.2976 20.3163 16.3893C20.372 16.4626 20.6694 16.3343 21.004 16.096L21.7661 17.874H21.7475C21.3944 18.1673 21.1713 18.4606 21.2457 18.5339C21.3014 18.6073 21.6174 18.4789 21.9334 18.2406L22.3237 19.1205L22.5096 20.4953C22.1565 20.7703 21.9334 21.0636 22.0077 21.1552C22.0635 21.2285 22.3052 21.1369 22.584 20.9352L22.7884 22.4567H22.7513C22.3981 22.75 22.175 23.0433 22.2494 23.1349C22.3052 23.2082 22.5654 23.0983 22.8442 22.8966L23.8479 30.5771C23.5319 30.8521 23.1602 31.1821 23.1788 31.2187C23.216 31.2554 23.5133 31.0721 23.8665 30.7971C23.8665 30.7971 25.3907 29.6789 25.5208 29.4406C25.5766 29.349 25.7996 25.9945 26.0599 21.9984L27.1937 21.1185C27.1937 21.1185 27.3424 21.1185 27.3982 21.0819L28.4019 20.2937C28.532 20.202 28.532 20.0004 28.4019 19.8721L27.6212 18.9189C27.5097 18.7722 27.3238 18.7356 27.1937 18.8456L26.2086 19.6154C26.3015 18.039 26.3944 16.4626 26.4874 14.9778L27.6584 14.0613C27.6584 14.0613 27.8071 14.0613 27.8629 14.0246L28.8666 13.2364C28.9967 13.1447 28.9967 12.9431 28.8666 12.8148L28.0859 11.8616C27.9744 11.715 27.7885 11.6783 27.6584 11.7883L26.6547 12.5765C26.6547 12.5765 26.6547 12.6132 26.6175 12.6498C26.729 10.9451 26.8034 9.60693 26.8405 8.94703C27.1565 8.6904 27.4911 8.43377 27.8443 8.15881L27.9372 8.08549Z" fill="white"/>
</svg>
